<?xml version="1.0" encoding="iso-8859-1"?>
<svg version="1.1"  xmlns="http://www.w3.org/2000/svg" xmlns:xlink="http://www.w3.org/1999/xlink" x="0px" y="0px"
	 viewBox="0 0 512.165 512.165" style="enable-background:new 0 0 512.165 512.165;" xml:space="preserve">
<g>
	<path style="fill:#ff0000;" d="M134.992,391.016c2.56,2.56,5.973,3.413,9.387,3.413s6.827-0.853,11.947-0.853l44.373-44.373
		l-20.48-20.48l-44.373,44.373C130.725,377.363,130.725,385.896,134.992,391.016"/>
	<path style="fill:#ff0000;" d="M472.059,80.403c5.12-5.12,5.12-12.8,0-17.92s-12.8-5.12-26.453-8.533l-232.107,230.4l26.453,26.453
		L472.059,80.403z"/>
</g>
<g>
	<polygon style="fill:#F3EDBF;" points="203.259,281.789 169.125,319.336 180.219,331.283 216.059,294.589 	"/>
	<polygon style="fill:#F3EDBF;" points="198.139,349.203 218.619,368.829 256.165,334.696 234.832,313.363 	"/>
</g>
<g>
	<path style="fill:#CC1300;" d="M154.619,393.576c-2.56,2.56-5.973,3.413-9.387,3.413s-6.827-0.853-9.387-3.413
		c-5.12-5.12-5.12-12.8,0-17.92l44.373-44.373l-10.24-10.24c-0.853,0-0.853-0.853-1.707-0.853l-63.147,69.973
		c19.627,4.267,34.133,20.48,34.987,40.96l5.12,4.267l73.387-66.56l-19.627-19.627L154.619,393.576z"/>
	<path style="fill:#CC1300;" d="M488.272,49.683c-19.627-19.627-52.053-19.627-72.533,0l-23.893,23.893L203.259,281.789l12.8,12.8
		L447.312,63.336c5.12-5.12,12.8-5.12,17.92,0s5.12,12.8,0,17.92l-230.4,232.107l21.333,21.333l208.213-188.587l23.893-23.893
		C508.752,101.736,508.752,69.309,488.272,49.683"/>
</g>
<path style="fill:#0F81E0;" d="M198.139,349.203l-17.92-17.92L198.139,349.203z"/>
<polygon style="fill:#FFFFFF;" points="234.832,313.363 216.059,294.589 180.219,331.283 198.139,349.203 "/>
<path style="fill:#997726;" d="M114.512,478.056H8.699c0,0,51.2-20.48,51.2-69.12c0-32.427,23.04-33.28,44.373-33.28h3.413
	c25.6,0,46.08,18.773,46.08,44.373l0,0C153.765,443.069,158.032,478.056,114.512,478.056"/>
<path d="M114.512,486.589H8.699c-4.267,0-7.68-2.56-8.533-6.827s1.707-7.68,5.12-9.387c1.707-0.853,46.08-18.773,46.08-61.44
	c0-41.813,34.133-41.813,52.907-41.813h3.413c30.72,0,54.613,23.04,54.613,52.907c0,1.707,0,3.413,0,5.973
	c0,15.36,0.853,34.987-11.947,48.64C141.819,482.323,129.872,486.589,114.512,486.589z M38.565,469.523h75.947
	c11.093,0,18.773-2.56,23.04-6.827c7.68-7.68,7.68-23.04,7.68-35.84c0-1.707,0-4.267,0-5.973c0-20.48-16.213-35.84-37.547-35.84
	h-3.413c-24.747-0.853-35.84,1.707-35.84,23.893C68.432,437.949,53.072,457.576,38.565,469.523z"/>
<path d="M158.032,431.123c-2.56,0-4.267-0.853-5.973-2.56l-4.267-4.267c-1.707-1.707-2.56-3.413-2.56-5.973
	c-0.853-16.213-11.947-29.867-28.16-33.28c-2.56-0.853-5.12-2.56-5.973-5.973c-0.853-2.56,0-5.973,1.707-8.533L385.872,67.603
	l23.893-24.747c23.04-23.04,61.44-23.04,84.48,0l0,0c11.947,11.947,17.92,26.453,17.92,42.667s-5.973,30.72-17.92,41.813
	l-23.893,23.893L164.005,428.563C162.299,430.269,159.739,431.123,158.032,431.123z M133.285,373.096
	c14.507,6.827,24.747,19.627,28.16,35.84l297.813-268.8l23.893-23.893c7.68-8.533,11.947-19.627,11.947-30.72
	s-4.267-22.187-12.8-29.867l0,0c-16.213-16.213-43.52-16.213-60.587,0l-23.893,23.893L133.285,373.096z"/>
<path d="M217.765,377.363c-2.56,0-4.267-0.853-5.973-2.56l-48.64-48.64c-3.413-3.413-3.413-8.533,0-11.947l34.133-38.4
	c1.707-1.707,3.413-2.56,5.973-2.56c2.56,0,4.267,0.853,5.973,2.56l52.053,52.053c1.707,1.707,2.56,4.267,2.56,5.973
	c0,2.56-0.853,4.267-2.56,5.973l-38.4,34.133C222.032,376.509,219.472,377.363,217.765,377.363z M181.072,320.189l36.693,36.693
	l25.6-23.04l-39.253-39.253L181.072,320.189z"/>
<g>
</g>
<g>
</g>
<g>
</g>
<g>
</g>
<g>
</g>
<g>
</g>
<g>
</g>
<g>
</g>
<g>
</g>
<g>
</g>
<g>
</g>
<g>
</g>
<g>
</g>
<g>
</g>
<g>
</g>
</svg>
