<?xml version="1.0" encoding="iso-8859-1"?>
<!-- Generator: Adobe Illustrator 19.0.0, SVG Export Plug-In . SVG Version: 6.00 Build 0)  -->
<svg version="1.1" id="Layer_1" xmlns="http://www.w3.org/2000/svg" xmlns:xlink="http://www.w3.org/1999/xlink" x="0px" y="0px"
	 viewBox="0 0 512.853 512.853" style="enable-background:new 0 0 512.853 512.853;" xml:space="preserve">
<g transform="translate(1)">
	<path style="fill:#434C6D;" d="M284.013,139.52c-2.56,0-4.267-0.853-5.973-2.56c-3.413-3.413-3.413-8.533,0-11.947l84.48-84.48
		c3.413-3.413,8.533-3.413,11.947,0l17.92,17.92c3.413,3.413,3.413,8.533,0,11.947c-3.413,3.413-8.533,3.413-11.947,0
		l-11.947-11.947l-78.507,78.507C288.28,138.667,285.72,139.52,284.013,139.52"/>
	<path style="fill:#FFF049;" d="M115.907,456.107c10.24-10.24,26.453-10.24,35.84,0l0,0c13.653-13.653,13.653-34.987,0-48.64
		l-47.787-48.64c-13.653-13.653-34.987-13.653-48.64,0l0,0c10.24,10.24,10.24,26.453,0,35.84s-26.453,10.24-35.84,0L7.533,503.893
		l108.373-11.947C106.52,481.707,106.52,465.493,115.907,456.107"/>
	<polygon style="fill:#3399FF;" points="186.733,384.427 127,324.693 416.28,34.56 476.867,95.147 	"/>
	<polygon style="fill:#7383BF;" points="470.893,88.32 423.107,40.533 453.827,8.96 502.467,57.6 	"/>
	<path style="fill:#F8B563;" d="M365.933,214.613c-2.56,0-4.267-0.853-5.973-2.56l-60.587-60.587c-3.413-3.413-3.413-8.533,0-11.947
		c3.413-3.413,8.533-3.413,11.947,0l60.587,60.587c3.413,3.413,3.413,8.533,0,11.947C370.2,213.76,367.64,214.613,365.933,214.613"
		/>
	<path style="fill:#7383BF;" d="M103.96,358.827l47.787,47.787l28.16-28.16l-48.64-48.64L103.96,358.827L103.96,358.827"/>
	<path style="fill:#CE9C00;" d="M58.733,439.04l3.413-3.413h10.24l3.413,3.413v10.24l-3.413,3.413h-10.24l-3.413-3.413V439.04z
		 M7.533,503.893L7.533,503.893l13.653-1.707l34.133-34.133c0.853,1.707,1.707,1.707,3.413,1.707H75.8
		c2.56,0,4.267-0.853,5.973-2.56l8.533-8.533c1.707-1.707,2.56-3.413,2.56-5.973v-17.067c0-2.56-0.853-4.267-2.56-5.973
		l-8.533-8.533c-1.707-1.707-3.413-2.56-5.973-2.56H58.733c-2.56,0-4.267,0.853-5.973,2.56l-8.533,8.533
		c-1.707,1.707-2.56,3.413-2.56,5.973v17.067c0,1.707,0.853,2.56,0.853,4.267L8.387,491.093L7.533,503.893z"/>
	<path d="M7.533,512.427c-2.56,0-4.267-0.853-5.973-2.56C-0.147,508.16-1,505.6-1,503.04l11.947-108.373
		c0-3.413,2.56-5.973,5.973-6.827c3.413-0.853,6.827,0,8.533,1.707c6.827,6.827,17.067,6.827,23.893,0
		c3.413-3.413,5.12-7.68,5.12-11.947s-1.707-8.533-5.12-11.947c-1.707-1.707-2.56-3.413-2.56-5.973s0.853-4.267,2.56-5.973
		c16.213-16.213,43.52-16.213,60.587,0l48.64,48.64c16.213,16.213,16.213,43.52,0,60.587c-3.413,3.413-8.533,3.413-11.947,0
		c-6.827-6.827-17.92-6.827-23.893,0l0,0c-3.413,3.413-5.12,7.68-5.12,11.947s1.707,8.533,5.12,11.947
		c2.56,2.56,3.413,5.973,1.707,8.533c-0.853,3.413-4.267,5.12-6.827,5.973L8.387,512.427H7.533z M26.307,410.027l-9.387,84.48
		l84.48-9.387c-0.853-3.413-1.707-7.68-1.707-11.093c0-9.387,3.413-17.92,10.24-23.893l0,0l0,0
		c11.093-11.093,27.307-12.8,40.96-5.973c5.12-9.387,4.267-22.187-4.267-30.72l-48.64-48.64c-8.533-8.533-20.48-9.387-30.72-4.267
		c2.56,5.12,4.267,10.24,4.267,16.213c0,9.387-3.413,17.92-10.24,23.893C51.907,410.88,38.253,413.44,26.307,410.027z"/>
	<path d="M75.8,469.76H58.733c-2.56,0-4.267-0.853-5.973-2.56l-8.533-8.533c-1.707-1.707-2.56-3.413-2.56-5.973v-17.067
		c0-2.56,0.853-4.267,2.56-5.973l8.533-8.533c1.707-1.707,3.413-2.56,5.973-2.56H75.8c2.56,0,4.267,0.853,5.973,2.56l8.533,8.533
		c1.707,1.707,2.56,3.413,2.56,5.973v17.067c0,2.56-0.853,4.267-2.56,5.973l-8.533,8.533C80.067,468.907,78.36,469.76,75.8,469.76z
		 M62.147,452.693h10.24l3.413-3.413v-10.24l-3.413-3.413h-10.24l-3.413,3.413v10.24L62.147,452.693z"/>
	
		<rect x="-1.749" y="471.964" transform="matrix(-0.7078 0.7064 -0.7064 -0.7078 393.2739 798.3223)" width="66.559" height="17.067"/>
	<path d="M186.733,392.96L186.733,392.96c-2.56,0-4.267-0.853-5.973-2.56l-60.587-60.587c-3.413-3.413-3.413-8.533,0-11.947
		L410.307,27.733c1.707-0.853,4.267-1.707,5.973-1.707l0,0c2.56,0,4.267,0.853,5.973,2.56l60.587,60.587
		c3.413,3.413,3.413,8.533,0,11.947L192.707,391.253C191.853,392.107,189.293,392.96,186.733,392.96z M138.947,324.693l48.64,48.64
		L464.92,96l-48.64-48.64L138.947,324.693z"/>
	<path d="M470.893,96.853c-2.56,0-4.267-0.853-5.973-2.56l-47.787-47.787c-3.413-3.413-3.413-8.533,0-11.947l31.573-31.573
		c3.413-3.413,8.533-3.413,11.947,0l48.64,48.64c3.413,3.413,3.413,8.533,0,11.947l-32.427,30.72
		C475.16,96,473.453,96.853,470.893,96.853z M435.053,40.533l35.84,35.84l19.627-19.627l-35.84-35.84L435.053,40.533z"/>
	<path d="M284.013,139.52c-2.56,0-4.267-0.853-5.973-2.56c-3.413-3.413-3.413-8.533,0-11.947l84.48-84.48
		c3.413-3.413,8.533-3.413,11.947,0l17.92,17.92c3.413,3.413,3.413,8.533,0,11.947c-3.413,3.413-8.533,3.413-11.947,0
		l-11.947-11.947l-78.507,78.507C288.28,138.667,285.72,139.52,284.013,139.52z"/>
	<path d="M365.933,214.613c-2.56,0-4.267-0.853-5.973-2.56l-60.587-60.587c-3.413-3.413-3.413-8.533,0-11.947
		c3.413-3.413,8.533-3.413,11.947,0l60.587,60.587c3.413,3.413,3.413,8.533,0,11.947C370.2,213.76,367.64,214.613,365.933,214.613z"
		/>
	<path d="M301.933,206.08c-2.56,0-4.267-0.853-5.973-2.56l-23.893-23.893c-3.413-3.413-3.413-8.533,0-11.947s8.533-3.413,11.947,0
		l23.893,23.893c3.413,3.413,3.413,8.533,0,11.947C306.2,205.227,303.64,206.08,301.933,206.08z"/>
	<path d="M268.653,227.413c-2.56,0-4.267-0.853-5.973-2.56l-17.92-17.92c-3.413-3.413-3.413-8.533,0-11.947s8.533-3.413,11.947,0
		l17.92,17.92c3.413,3.413,3.413,8.533,0,11.947C272.92,226.56,270.36,227.413,268.653,227.413z"/>
	<path d="M152.6,416c-2.56,0-4.267-0.853-5.973-2.56L98.84,365.653c-0.853-0.853-0.853-0.853-1.707-1.707
		c-1.707-3.413-1.707-7.68,1.707-10.24l28.16-28.16c3.413-3.413,8.533-3.413,11.947,0l48.64,48.64
		c1.707,1.707,2.56,3.413,2.56,5.973s-0.853,4.267-2.56,5.973l-28.16,28.16C156.867,415.147,154.307,416,152.6,416z
		 M115.907,358.827l35.84,35.84l16.213-16.213l-35.84-35.84L115.907,358.827z"/>
</g>
<g>
</g>
<g>
</g>
<g>
</g>
<g>
</g>
<g>
</g>
<g>
</g>
<g>
</g>
<g>
</g>
<g>
</g>
<g>
</g>
<g>
</g>
<g>
</g>
<g>
</g>
<g>
</g>
<g>
</g>
</svg>
