<?xml version="1.0" encoding="iso-8859-1"?>
<svg version="1.1" id="Layer_1" xmlns="http://www.w3.org/2000/svg" xmlns:xlink="http://www.w3.org/1999/xlink" x="0px" y="0px"
	 viewBox="0 0 512.213 512.213" style="enable-background:new 0 0 512.213 512.213;" xml:space="preserve">
<polygon style="fill:#E0BBAA;" points="8.657,503.68 117.031,466.987 45.351,395.307 "/>
<path style="fill:#CC4B4C;" d="M488.231,24.107c-19.627-19.627-52.053-19.627-72.533,0l-17.92,17.92l72.533,72.533l17.92-17.92
	C508.711,76.16,508.711,43.733,488.231,24.107"/>
<polygon style="fill:#E39700;" points="45.351,395.307 117.031,466.987 446.417,138.453 373.884,65.92 "/>
<polygon style="fill:#FFB800;" points="69.244,419.2 397.777,90.667 421.671,114.56 93.137,443.093 "/>
<polygon style="fill:#959595;" points="446.417,138.453 446.417,138.453 470.311,114.56 470.311,114.56 464.337,120.533 "/>
<polygon style="fill:#F3EDBF;" points="391.804,48 373.884,65.92 446.417,138.453 464.337,120.533 470.311,114.56 397.777,42.027 
	"/>
<path style="fill:#949493;" d="M8.657,512.213c-2.56,0-4.267-0.853-5.973-2.56c-3.413-3.413-3.413-8.533,0-11.947l8.533-8.533
	c3.413-3.413,8.533-3.413,11.947,0c3.413,3.413,3.413,8.533,0,11.947l-8.533,8.533C12.924,511.36,11.217,512.213,8.657,512.213"/>
<path d="M8.657,512.213c-2.56,0-4.267-0.853-5.973-2.56c-2.56-2.56-3.413-5.973-1.707-8.533l35.84-108.373
	c0-0.853,0.853-2.56,1.707-3.413L410.577,17.28c23.04-23.04,61.44-23.04,84.48,0l0,0l0,0c11.093,11.947,17.067,26.453,17.067,42.667
	s-5.973,30.72-17.92,41.813l-371.2,371.2c-0.853,0.853-1.707,1.707-3.413,1.707L11.217,511.36
	C10.364,512.213,9.511,512.213,8.657,512.213z M52.177,399.573l-29.867,90.453l90.453-29.867L482.257,90.667
	c8.533-8.533,12.8-19.627,12.8-30.72s-4.267-22.187-12.8-29.867l0,0c-7.68-8.533-18.773-12.8-29.867-12.8
	c-11.093,0-22.187,4.267-29.867,12.8L52.177,399.573z"/>
<path d="M446.417,150.4l-84.48-84.48l35.84-35.84l84.48,84.48L446.417,150.4z M385.831,65.92l60.587,60.587l11.947-11.947
	l-60.587-60.587L385.831,65.92z"/>
<rect x="72.649" y="379.948" transform="matrix(-0.7071 0.7071 -0.7071 -0.7071 443.4539 678.6105)" width="17.067" height="102.399"/>
</svg>
